<svg xmlns="http://www.w3.org/2000/svg" xmlns:xlink="http://www.w3.org/1999/xlink" contentStyleType="text/css" data-diagram-type="DESCRIPTION" height="1421px" preserveAspectRatio="none" style="width:1704px;height:1421px;background:#FFFFFF;" version="1.1" viewBox="0 0 1704 1421" width="1704px" zoomAndPan="magnify"><title>Rule Engine - Workflow and Usage</title><defs/><g><g class="title" data-source-line="13"><text fill="#000000" font-family="Arial" font-size="22" font-weight="bold" lengthAdjust="spacing" textLength="427.1953" x="633.9023" y="35.4209">Rule Engine - Workflow and Usage</text></g><!--cluster def--><g class="cluster" data-entity="def" data-source-line="18" data-uid="ent0004" id="cluster_def"><rect fill="#ECF0F1" height="361.5" rx="2.5" ry="2.5" style="stroke:#BDC3C7;stroke-width:1;" width="390" x="578" y="155.5794"/><rect fill="#ECF0F1" height="10" style="stroke:#BDC3C7;stroke-width:1;" width="15" x="948" y="160.5794"/><rect fill="#ECF0F1" height="2" style="stroke:#BDC3C7;stroke-width:1;" width="4" x="946" y="162.5794"/><rect fill="#ECF0F1" height="2" style="stroke:#BDC3C7;stroke-width:1;" width="4" x="946" y="166.5794"/><text fill="#000000" font-family="Arial" font-size="12" font-weight="bold" lengthAdjust="spacing" textLength="100.9395" x="722.5303" y="179.718">Rule Definition</text></g><!--cluster json--><g class="cluster" data-entity="json" data-source-line="19" data-uid="ent0005" id="cluster_json"><rect fill="#FFFFFF" height="281.5" rx="2.5" ry="2.5" style="stroke:#000000;stroke-width:1;" width="318" x="610" y="203.5794"/><line style="stroke:#000000;stroke-width:1;" x1="610" x2="928" y1="221.5481" y2="221.5481"/><text fill="#000000" font-family="Arial" font-size="12" font-weight="bold" lengthAdjust="spacing" textLength="120.4395" x="708.7803" y="216.718">JSON Rule Format</text></g><!--cluster core--><g class="cluster" data-entity="core" data-source-line="41" data-uid="ent0009" id="cluster_core"><path d="M910.5,549.0794 L1027.123,549.0794 A3.75,3.75 0 0 1 1029.623,551.5794 L1036.623,569.0481 L1694.5,569.0481 A2.5,2.5 0 0 1 1697,571.5481 L1697,1411.5494 A2.5,2.5 0 0 1 1694.5,1414.0494 L910.5,1414.0494 A2.5,2.5 0 0 1 908,1411.5494 L908,551.5794 A2.5,2.5 0 0 1 910.5,549.0794" fill="#FFFFFF" style="stroke:#000000;stroke-width:1;"/><line style="stroke:#000000;stroke-width:1;" x1="908" x2="1036.623" y1="569.0481" y2="569.0481"/><text fill="#000000" font-family="Arial" font-size="12" font-weight="bold" lengthAdjust="spacing" textLength="115.623" x="912" y="562.218">Rule Engine Core</text></g><!--cluster conditions--><g class="cluster" data-entity="conditions" data-source-line="44" data-uid="ent0012" id="cluster_conditions"><rect fill="#ECF0F1" height="334.77" rx="2.5" ry="2.5" style="stroke:#BDC3C7;stroke-width:1;" width="639" x="1034" y="1055.2794"/><rect fill="#ECF0F1" height="10" style="stroke:#BDC3C7;stroke-width:1;" width="15" x="1653" y="1060.2794"/><rect fill="#ECF0F1" height="2" style="stroke:#BDC3C7;stroke-width:1;" width="4" x="1651" y="1062.2794"/><rect fill="#ECF0F1" height="2" style="stroke:#BDC3C7;stroke-width:1;" width="4" x="1651" y="1066.2794"/><text fill="#000000" font-family="Arial" font-size="12" font-weight="bold" lengthAdjust="spacing" textLength="72.0762" x="1317.4619" y="1079.418">Conditions</text></g><!--cluster logical--><g class="cluster" data-entity="logical" data-source-line="45" data-uid="ent0013" id="cluster_logical"><rect fill="#ECF0F1" height="254.77" rx="2.5" ry="2.5" style="stroke:#BDC3C7;stroke-width:1;" width="263" x="1066" y="1103.2794"/><rect fill="#ECF0F1" height="10" style="stroke:#BDC3C7;stroke-width:1;" width="15" x="1309" y="1108.2794"/><rect fill="#ECF0F1" height="2" style="stroke:#BDC3C7;stroke-width:1;" width="4" x="1307" y="1110.2794"/><rect fill="#ECF0F1" height="2" style="stroke:#BDC3C7;stroke-width:1;" width="4" x="1307" y="1114.2794"/><text fill="#000000" font-family="Arial" font-size="12" font-weight="bold" lengthAdjust="spacing" textLength="120.082" x="1137.459" y="1127.418">Logical Operators</text></g><!--cluster value--><g class="cluster" data-entity="value" data-source-line="52" data-uid="ent0018" id="cluster_value"><rect fill="#ECF0F1" height="254.77" rx="2.5" ry="2.5" style="stroke:#BDC3C7;stroke-width:1;" width="272" x="1369" y="1103.2794"/><rect fill="#ECF0F1" height="10" style="stroke:#BDC3C7;stroke-width:1;" width="15" x="1621" y="1108.2794"/><rect fill="#ECF0F1" height="2" style="stroke:#BDC3C7;stroke-width:1;" width="4" x="1619" y="1110.2794"/><rect fill="#ECF0F1" height="2" style="stroke:#BDC3C7;stroke-width:1;" width="4" x="1619" y="1114.2794"/><text fill="#000000" font-family="Arial" font-size="12" font-weight="bold" lengthAdjust="spacing" textLength="114.4336" x="1447.7832" y="1127.418">Value Conditions</text></g><!--cluster client--><g class="cluster" data-entity="client" data-source-line="63" data-uid="ent0025" id="cluster_client"><path d="M13.5,976.4594 L91.9082,976.4594 A3.75,3.75 0 0 1 94.4082,978.9594 L101.4082,996.4281 L881.5,996.4281 A2.5,2.5 0 0 1 884,998.9281 L884,1295.5794 A2.5,2.5 0 0 1 881.5,1298.0794 L13.5,1298.0794 A2.5,2.5 0 0 1 11,1295.5794 L11,978.9594 A2.5,2.5 0 0 1 13.5,976.4594" fill="#FFFFFF" style="stroke:#000000;stroke-width:1;"/><line style="stroke:#000000;stroke-width:1;" x1="11" x2="101.4082" y1="996.4281" y2="996.4281"/><text fill="#000000" font-family="Arial" font-size="12" font-weight="bold" lengthAdjust="spacing" textLength="77.4082" x="15" y="989.598">Client Code</text></g><!--cluster data--><g class="cluster" data-entity="data" data-source-line="64" data-uid="ent0026" id="cluster_data"><rect fill="#ECF0F1" height="241.62" rx="2.5" ry="2.5" style="stroke:#BDC3C7;stroke-width:1;" width="274" x="578" y="1024.4594"/><rect fill="#ECF0F1" height="10" style="stroke:#BDC3C7;stroke-width:1;" width="15" x="832" y="1029.4594"/><rect fill="#ECF0F1" height="2" style="stroke:#BDC3C7;stroke-width:1;" width="4" x="830" y="1031.4594"/><rect fill="#ECF0F1" height="2" style="stroke:#BDC3C7;stroke-width:1;" width="4" x="830" y="1035.4594"/><text fill="#000000" font-family="Arial" font-size="12" font-weight="bold" lengthAdjust="spacing" textLength="31.8926" x="699.0537" y="1048.598">Data</text></g><!--cluster results--><g class="cluster" data-entity="results" data-source-line="80" data-uid="ent0030" id="cluster_results"><rect fill="#ECF0F1" height="129.88" rx="2.5" ry="2.5" style="stroke:#BDC3C7;stroke-width:1;" width="495" x="43" y="1080.3294"/><rect fill="#ECF0F1" height="10" style="stroke:#BDC3C7;stroke-width:1;" width="15" x="518" y="1085.3294"/><rect fill="#ECF0F1" height="2" style="stroke:#BDC3C7;stroke-width:1;" width="4" x="516" y="1087.3294"/><rect fill="#ECF0F1" height="2" style="stroke:#BDC3C7;stroke-width:1;" width="4" x="516" y="1091.3294"/><text fill="#000000" font-family="Arial" font-size="12" font-weight="bold" lengthAdjust="spacing" textLength="50.0566" x="265.4717" y="1104.468">Results</text></g><g class="entity" data-entity="GMN6" data-source-line="21" data-uid="ent0007" id="entity_GMN6"><path d="M626.02,235.5794 L626.02,349.0494 L519.19,353.0494 L626.02,357.0494 L626.02,469.0794 A0,0 0 0 0 626.02,469.0794 L911.9868,469.0794 A0,0 0 0 0 911.9868,469.0794 L911.9868,245.5794 L901.9868,235.5794 L626.02,235.5794 A0,0 0 0 0 626.02,235.5794" fill="#F1C40F" style="stroke:#F39C12;stroke-width:1;"/><path d="M901.9868,235.5794 L901.9868,245.5794 L911.9868,245.5794 L901.9868,235.5794" fill="#F1C40F" style="stroke:#F39C12;stroke-width:1;"/><text fill="#000000" font-family="Arial" font-size="12" lengthAdjust="spacing" textLength="7.6348" x="632.02" y="251.718">{</text><text fill="#000000" font-family="Arial" font-size="12" lengthAdjust="spacing" textLength="179.0332" x="639.6489" y="265.6868">"name": "Cisco Version Rule",</text><text fill="#000000" font-family="Arial" font-size="12" lengthAdjust="spacing" textLength="257.3379" x="639.6489" y="279.6555">"description": "Check vendor and version",</text><text fill="#000000" font-family="Arial" font-size="12" lengthAdjust="spacing" textLength="88.2656" x="639.6489" y="293.6243">"conditions": {</text><text fill="#000000" font-family="Arial" font-size="12" lengthAdjust="spacing" textLength="45.6387" x="647.2778" y="307.593">"any": [</text><text fill="#000000" font-family="Arial" font-size="12" lengthAdjust="spacing" textLength="7.6348" x="654.9067" y="321.5618">{</text><text fill="#000000" font-family="Arial" font-size="12" lengthAdjust="spacing" textLength="179.3086" x="662.5356" y="335.5305">"path": "$.devices[*].vendor",</text><text fill="#000000" font-family="Arial" font-size="12" lengthAdjust="spacing" textLength="144.3047" x="662.5356" y="349.4993">"operator": "not_equal",</text><text fill="#000000" font-family="Arial" font-size="12" lengthAdjust="spacing" textLength="149.4316" x="662.5356" y="363.468">"value": "Cisco Systems"</text><text fill="#000000" font-family="Arial" font-size="12" lengthAdjust="spacing" textLength="11.4492" x="654.9067" y="377.4368">},</text><text fill="#000000" font-family="Arial" font-size="12" lengthAdjust="spacing" textLength="7.6348" x="654.9067" y="391.4055">{</text><text fill="#000000" font-family="Arial" font-size="12" lengthAdjust="spacing" textLength="53.7246" x="662.5356" y="405.3743">"all": [...]</text><text fill="#000000" font-family="Arial" font-size="12" lengthAdjust="spacing" textLength="7.6348" x="654.9067" y="419.343">}</text><text fill="#000000" font-family="Arial" font-size="12" lengthAdjust="spacing" textLength="4.6816" x="647.2778" y="433.3118">]</text><text fill="#000000" font-family="Arial" font-size="12" lengthAdjust="spacing" textLength="7.6348" x="639.6489" y="447.2805">}</text><text fill="#000000" font-family="Arial" font-size="12" lengthAdjust="spacing" textLength="7.6348" x="632.02" y="461.2493">}</text></g><!--entity engine--><g class="entity" data-entity="engine" data-source-line="42" data-uid="ent0010" id="entity_engine"><rect fill="#ECF0F1" height="43.9688" rx="2.5" ry="2.5" style="stroke:#BDC3C7;stroke-width:1;" width="107.7871" x="924.11" y="581.0794"/><rect fill="#ECF0F1" height="10" style="stroke:#BDC3C7;stroke-width:1;" width="15" x="1011.8971" y="586.0794"/><rect fill="#ECF0F1" height="2" style="stroke:#BDC3C7;stroke-width:1;" width="4" x="1009.8971" y="588.0794"/><rect fill="#ECF0F1" height="2" style="stroke:#BDC3C7;stroke-width:1;" width="4" x="1009.8971" y="592.0794"/><text fill="#000000" font-family="Arial" font-size="12" lengthAdjust="spacing" textLength="67.7871" x="939.11" y="612.218">RuleEngine</text></g><!--entity factory--><g class="entity" data-entity="factory" data-source-line="43" data-uid="ent0011" id="entity_factory"><rect fill="#ECF0F1" height="43.9688" rx="2.5" ry="2.5" style="stroke:#BDC3C7;stroke-width:1;" width="142.1992" x="1249.9" y="800.7694"/><rect fill="#ECF0F1" height="10" style="stroke:#BDC3C7;stroke-width:1;" width="15" x="1372.0992" y="805.7694"/><rect fill="#ECF0F1" height="2" style="stroke:#BDC3C7;stroke-width:1;" width="4" x="1370.0992" y="807.7694"/><rect fill="#ECF0F1" height="2" style="stroke:#BDC3C7;stroke-width:1;" width="4" x="1370.0992" y="811.7694"/><text fill="#000000" font-family="Arial" font-size="12" lengthAdjust="spacing" textLength="102.1992" x="1264.9" y="831.908">ConditionFactory</text></g><!--entity evaluator--><g class="entity" data-entity="evaluator" data-source-line="59" data-uid="ent0023" id="entity_evaluator"><rect fill="#ECF0F1" height="43.9688" rx="2.5" ry="2.5" style="stroke:#BDC3C7;stroke-width:1;" width="123.9707" x="961.01" y="800.7694"/><rect fill="#ECF0F1" height="10" style="stroke:#BDC3C7;stroke-width:1;" width="15" x="1064.9807" y="805.7694"/><rect fill="#ECF0F1" height="2" style="stroke:#BDC3C7;stroke-width:1;" width="4" x="1062.9807" y="807.7694"/><rect fill="#ECF0F1" height="2" style="stroke:#BDC3C7;stroke-width:1;" width="4" x="1062.9807" y="811.7694"/><text fill="#000000" font-family="Arial" font-size="12" lengthAdjust="spacing" textLength="83.9707" x="976.01" y="831.908">RuleEvaluator</text></g><!--entity path--><g class="entity" data-entity="path" data-source-line="60" data-uid="ent0024" id="entity_path"><rect fill="#ECF0F1" height="43.9688" rx="2.5" ry="2.5" style="stroke:#BDC3C7;stroke-width:1;" width="93.3086" x="924.35" y="1131.2794"/><rect fill="#ECF0F1" height="10" style="stroke:#BDC3C7;stroke-width:1;" width="15" x="997.6586" y="1136.2794"/><rect fill="#ECF0F1" height="2" style="stroke:#BDC3C7;stroke-width:1;" width="4" x="995.6586" y="1138.2794"/><rect fill="#ECF0F1" height="2" style="stroke:#BDC3C7;stroke-width:1;" width="4" x="995.6586" y="1142.2794"/><text fill="#000000" font-family="Arial" font-size="12" lengthAdjust="spacing" textLength="53.3086" x="939.35" y="1162.418">PathUtils</text></g><!--entity all--><g class="entity" data-entity="all" data-source-line="46" data-uid="ent0014" id="entity_all"><rect fill="#FFFFFF" height="19.9688" rx="2.5" ry="2.5" style="stroke:#000000;stroke-width:1;" width="74.4805" x="1098.76" y="1143.2794"/><text fill="#000000" font-family="Arial" font-size="12" lengthAdjust="spacing" textLength="54.4805" x="1108.76" y="1157.418">All (AND)</text></g><!--entity any--><g class="entity" data-entity="any" data-source-line="47" data-uid="ent0015" id="entity_any"><rect fill="#FFFFFF" height="19.9688" rx="2.5" ry="2.5" style="stroke:#000000;stroke-width:1;" width="73.877" x="1208.06" y="1143.2794"/><text fill="#000000" font-family="Arial" font-size="12" lengthAdjust="spacing" textLength="53.877" x="1218.06" y="1157.418">Any (OR)</text></g><!--entity none--><g class="entity" data-entity="none" data-source-line="48" data-uid="ent0016" id="entity_none"><rect fill="#FFFFFF" height="19.9688" rx="2.5" ry="2.5" style="stroke:#000000;stroke-width:1;" width="91.2441" x="1090.38" y="1314.0794"/><text fill="#000000" font-family="Arial" font-size="12" lengthAdjust="spacing" textLength="71.2441" x="1100.38" y="1328.218">None (NOR)</text></g><!--entity not--><g class="entity" data-entity="not" data-source-line="49" data-uid="ent0017" id="entity_not"><rect fill="#FFFFFF" height="19.9688" rx="2.5" ry="2.5" style="stroke:#000000;stroke-width:1;" width="79.9531" x="1217.02" y="1314.0794"/><text fill="#000000" font-family="Arial" font-size="12" lengthAdjust="spacing" textLength="59.9531" x="1227.02" y="1328.218">Not (NOT)</text></g><!--entity comp--><g class="entity" data-entity="comp" data-source-line="53" data-uid="ent0019" id="entity_comp"><rect fill="#FFFFFF" height="19.9688" rx="2.5" ry="2.5" style="stroke:#000000;stroke-width:1;" width="91.8477" x="1393.08" y="1143.2794"/><text fill="#000000" font-family="Arial" font-size="12" lengthAdjust="spacing" textLength="71.8477" x="1403.08" y="1157.418">Comparison</text></g><!--entity exist--><g class="entity" data-entity="exist" data-source-line="54" data-uid="ent0020" id="entity_exist"><rect fill="#FFFFFF" height="19.9688" rx="2.5" ry="2.5" style="stroke:#000000;stroke-width:1;" width="77.9434" x="1520.03" y="1143.2794"/><text fill="#000000" font-family="Arial" font-size="12" lengthAdjust="spacing" textLength="57.9434" x="1530.03" y="1157.418">Existence</text></g><!--entity string--><g class="entity" data-entity="string" data-source-line="55" data-uid="ent0021" id="entity_string"><rect fill="#FFFFFF" height="19.9688" rx="2.5" ry="2.5" style="stroke:#000000;stroke-width:1;" width="55.8125" x="1411.09" y="1314.0794"/><text fill="#000000" font-family="Arial" font-size="12" lengthAdjust="spacing" textLength="35.8125" x="1421.09" y="1328.218">String</text></g><!--entity custom--><g class="entity" data-entity="custom" data-source-line="56" data-uid="ent0022" id="entity_custom"><rect fill="#FFFFFF" height="19.9688" rx="2.5" ry="2.5" style="stroke:#000000;stroke-width:1;" width="65.9727" x="1502.01" y="1314.0794"/><text fill="#000000" font-family="Arial" font-size="12" lengthAdjust="spacing" textLength="45.9727" x="1512.01" y="1328.218">Custom</text></g><g class="entity" data-entity="GMN27" data-source-line="66" data-uid="ent0028" id="entity_GMN27"><path d="M601.83,1064.4594 L601.83,1242.0844 L808.1679,1242.0844 L808.1679,1074.4594 L798.1679,1064.4594 L601.83,1064.4594" fill="#F1C40F" style="stroke:#F39C12;stroke-width:1;"/><path d="M798.1679,1064.4594 L798.1679,1074.4594 L808.1679,1074.4594 L798.1679,1064.4594" fill="#F1C40F" style="stroke:#F39C12;stroke-width:1;"/><text fill="#000000" font-family="Arial" font-size="12" lengthAdjust="spacing" textLength="7.6348" x="607.83" y="1080.598">{</text><text fill="#000000" font-family="Arial" font-size="12" lengthAdjust="spacing" textLength="69.2461" x="615.4589" y="1094.5668">"devices": [</text><text fill="#000000" font-family="Arial" font-size="12" lengthAdjust="spacing" textLength="7.6348" x="623.0878" y="1108.5355">{</text><text fill="#000000" font-family="Arial" font-size="12" lengthAdjust="spacing" textLength="162.4512" x="630.7167" y="1122.5043">"vendor": "Cisco Systems",</text><text fill="#000000" font-family="Arial" font-size="12" lengthAdjust="spacing" textLength="126.7559" x="630.7167" y="1136.473">"osVersion": "17.3.6"</text><text fill="#000000" font-family="Arial" font-size="12" lengthAdjust="spacing" textLength="11.4492" x="623.0878" y="1150.4418">},</text><text fill="#000000" font-family="Arial" font-size="12" lengthAdjust="spacing" textLength="7.6348" x="623.0878" y="1164.4105">{</text><text fill="#000000" font-family="Arial" font-size="12" lengthAdjust="spacing" textLength="162.4512" x="630.7167" y="1178.3793">"vendor": "Cisco Systems",</text><text fill="#000000" font-family="Arial" font-size="12" lengthAdjust="spacing" textLength="126.7559" x="630.7167" y="1192.348">"osVersion": "16.9.5"</text><text fill="#000000" font-family="Arial" font-size="12" lengthAdjust="spacing" textLength="7.6348" x="623.0878" y="1206.3168">}</text><text fill="#000000" font-family="Arial" font-size="12" lengthAdjust="spacing" textLength="4.6816" x="615.4589" y="1220.2855">]</text><text fill="#000000" font-family="Arial" font-size="12" lengthAdjust="spacing" textLength="7.6348" x="607.83" y="1234.2543">}</text></g><g class="entity" data-entity="GMN31" data-source-line="82" data-uid="ent0032" id="entity_GMN31"><path d="M67,1120.3294 L67,1186.2044 L495.0039,1186.2044 L495.0039,1130.3294 L485.0039,1120.3294 L67,1120.3294" fill="#F1C40F" style="stroke:#F39C12;stroke-width:1;"/><path d="M485.0039,1120.3294 L485.0039,1130.3294 L495.0039,1130.3294 L485.0039,1120.3294" fill="#F1C40F" style="stroke:#F39C12;stroke-width:1;"/><text fill="#000000" font-family="Arial" font-size="12" lengthAdjust="spacing" textLength="47.9121" x="73" y="1136.468">Results:</text><text fill="#000000" font-family="Arial" font-size="12" lengthAdjust="spacing" textLength="206.4844" x="73" y="1150.4368">- Rule 'Cisco Version Rule': FAILED</text><text fill="#000000" font-family="Arial" font-size="12" lengthAdjust="spacing" textLength="218.1152" x="73" y="1164.4055">- 1 of 2 devices do not fulfill the rule</text><text fill="#000000" font-family="Arial" font-size="12" lengthAdjust="spacing" textLength="407.0039" x="73" y="1178.3743">- Failing device: {"vendor": "Cisco Systems", "osVersion": "16.9.5"}</text></g><!--entity dev--><g class="entity" data-entity="dev" data-source-line="15" data-uid="ent0002" id="entity_dev"><ellipse cx="959.9984" cy="65.6094" fill="#3498DB" rx="8" ry="8" style="stroke:#2980B9;stroke-width:1;"/><path d="M959.9984,73.6094 L959.9984,100.6094 M946.9984,81.6094 L972.9984,81.6094 M959.9984,100.6094 L946.9984,115.6094 M959.9984,100.6094 L972.9984,115.6094" fill="none" style="stroke:#2980B9;stroke-width:1;"/><text fill="#000000" font-family="Arial" font-size="12" lengthAdjust="spacing" textLength="61.7168" x="929.14" y="128.748">Developer</text></g><!--entity user--><g class="entity" data-entity="user" data-source-line="16" data-uid="ent0003" id="entity_user"><ellipse cx="505" cy="323.8494" fill="#3498DB" rx="8" ry="8" style="stroke:#2980B9;stroke-width:1;"/><path d="M505,331.8494 L505,358.8494 M492,339.8494 L518,339.8494 M505,358.8494 L492,373.8494 M505,358.8494 L518,373.8494" fill="none" style="stroke:#2980B9;stroke-width:1;"/><text fill="#000000" font-family="Arial" font-size="12" lengthAdjust="spacing" textLength="27.3516" x="491.3242" y="386.988">User</text></g><g class="entity" data-entity="GMN44" data-source-line="102" data-uid="ent0045" id="entity_GMN44"><path d="M541.12,685.0494 L541.12,960.4556 L854.8778,960.4556 L854.8778,695.0494 L844.8778,685.0494 L541.12,685.0494" fill="#F1C40F" style="stroke:#F39C12;stroke-width:1;"/><path d="M844.8778,685.0494 L844.8778,695.0494 L854.8778,695.0494 L844.8778,685.0494" fill="#F1C40F" style="stroke:#F39C12;stroke-width:1;"/><text fill="#000000" font-family="Arial" font-size="12" font-weight="bold" lengthAdjust="spacing" textLength="100.1367" x="547.12" y="701.188">Example Code:</text><text fill="#000000" font-family="Arial" font-size="12" lengthAdjust="spacing" textLength="3.8145" x="547.12" y="715.1568">&#160;</text><text fill="#000000" font-family="Arial" font-size="12" lengthAdjust="spacing" textLength="11.4492" x="547.12" y="729.1255">1.</text><text fill="#000000" font-family="Arial" font-size="12" lengthAdjust="spacing" textLength="84.8789" x="562.3837" y="729.1255">Create engine</text><text fill="#000000" font-family="Arial" font-size="12" lengthAdjust="spacing" textLength="135.7617" x="547.12" y="743.0943">engine = RuleEngine()</text><text fill="#000000" font-family="Arial" font-size="12" lengthAdjust="spacing" textLength="3.8145" x="547.12" y="757.063">&#160;</text><text fill="#000000" font-family="Arial" font-size="12" lengthAdjust="spacing" textLength="11.4492" x="547.12" y="771.0318">2.</text><text fill="#000000" font-family="Arial" font-size="12" lengthAdjust="spacing" textLength="62.3203" x="562.3837" y="771.0318">Load rules</text><text fill="#000000" font-family="Arial" font-size="12" lengthAdjust="spacing" textLength="239.1563" x="547.12" y="785.0005">engine.load_rules_from_json(rules_json,</text><text fill="#000000" font-family="Arial" font-size="12" lengthAdjust="spacing" textLength="132.832" x="650.1102" y="798.9693">entity_type="device")</text><text fill="#000000" font-family="Arial" font-size="12" lengthAdjust="spacing" textLength="3.8145" x="547.12" y="812.938">&#160;</text><text fill="#000000" font-family="Arial" font-size="12" lengthAdjust="spacing" textLength="11.4492" x="547.12" y="826.9068">3.</text><text fill="#000000" font-family="Arial" font-size="12" lengthAdjust="spacing" textLength="83.2617" x="562.3837" y="826.9068">Evaluate data</text><text fill="#000000" font-family="Arial" font-size="12" lengthAdjust="spacing" textLength="223.6641" x="547.12" y="840.8755">results = engine.evaluate_data(data,</text><text fill="#000000" font-family="Arial" font-size="12" lengthAdjust="spacing" textLength="132.832" x="661.5536" y="854.8443">entity_type="device")</text><text fill="#000000" font-family="Arial" font-size="12" lengthAdjust="spacing" textLength="3.8145" x="547.12" y="868.813">&#160;</text><text fill="#000000" font-family="Arial" font-size="12" lengthAdjust="spacing" textLength="11.4492" x="547.12" y="882.7818">4.</text><text fill="#000000" font-family="Arial" font-size="12" lengthAdjust="spacing" textLength="90.2754" x="562.3837" y="882.7818">Process results</text><text fill="#000000" font-family="Arial" font-size="12" lengthAdjust="spacing" textLength="117.6035" x="547.12" y="896.7505">for result in results:</text><text fill="#000000" font-family="Arial" font-size="12" lengthAdjust="spacing" textLength="277.5" x="562.3778" y="910.7193">print(f"{result.rule_name}: {result.success}")</text><text fill="#000000" font-family="Arial" font-size="12" lengthAdjust="spacing" textLength="123.8496" x="562.3778" y="924.688">if not result.success:</text><text fill="#000000" font-family="Arial" font-size="12" lengthAdjust="spacing" textLength="209.2793" x="577.6356" y="938.6568">for elem in result.failing_elements:</text><text fill="#000000" font-family="Arial" font-size="12" lengthAdjust="spacing" textLength="141.6621" x="592.8934" y="952.6255">print(f"Failed: {elem}")</text></g><!--link path to GMN27--><g class="link" data-entity-1="path" data-entity-2="GMN27" data-source-line="66" data-uid="lnk29" id="link_path_GMN27"><path d="M924.06,1165.0494 C892.06,1165.0494 848.43,1165.0494 808.52,1165.0494" fill="none" id="path-GMN27" style="stroke:#2C3E50;stroke-width:1;stroke-dasharray:7.0,7.0;"/></g><!--link GMN27 to GMN31--><g class="link" data-entity-1="GMN27" data-entity-2="GMN31" data-source-line="82" data-uid="lnk33" id="link_GMN27_GMN31"><path d="M601.55,1171.0494 C569.19,1171.0494 532.21,1171.0494 495.14,1171.0494" fill="none" id="GMN27-GMN31" style="stroke:#2C3E50;stroke-width:1;stroke-dasharray:7.0,7.0;"/></g><!--link dev to def--><g class="link" data-entity-1="dev" data-entity-2="def" data-source-line="90" data-uid="lnk34" id="link_dev_def"><path d="M960,131.9194 C960,136.2275 960,140.8132 960,145.6275 C960,148.0347 960,150.499 960,153.0144 C960,153.6432 960,148.2752 960,148.9104" fill="none" id="dev-to-def" style="stroke:#2C3E50;stroke-width:1;"/><polygon fill="#2C3E50" points="960,154.9104,964,145.9104,960,149.9104,956,145.9104,960,154.9104" style="stroke:#2C3E50;stroke-width:1;"/><text fill="#000000" font-family="Arial" font-size="12" lengthAdjust="spacing" textLength="94.0078" x="961" y="238.928">1. Defines rules</text></g><!--link def to engine--><g class="link" data-entity-1="def" data-entity-2="engine" data-source-line="91" data-uid="lnk35" id="link_def_engine"><path d="M960,517.6459 C960,519.1124 960,520.5708 960,522.0202 C960,545.2094 960,560.0769 960,574.8294" fill="none" id="def-to-engine" style="stroke:#2C3E50;stroke-width:1;"/><polygon fill="#2C3E50" points="960,580.8294,964,571.8294,960,575.8294,956,571.8294,960,580.8294" style="stroke:#2C3E50;stroke-width:1;"/><text fill="#000000" font-family="Arial" font-size="12" lengthAdjust="spacing" textLength="77.584" x="961" y="464.078">2. Load rules</text></g><!--link data to engine--><g class="link" data-entity-1="data" data-entity-2="engine" data-source-line="92" data-uid="lnk36" id="link_data_engine"><path d="M852.2227,1098.0494 C852.6888,1098.0494 853.1717,1098.0494 853.6706,1098.0494 C855.6661,1098.0494 857.9174,1098.0494 860.3734,1098.0494 C870.1975,1098.0494 883.2963,1098.0494 896.395,1098.0494 C922.5925,1098.0494 948.79,1098.0494 948.79,1098.0494 C948.79,1098.0494 948.79,727.6094 948.79,631.2994" fill="none" id="data-to-engine" style="stroke:#2C3E50;stroke-width:1;"/><polygon fill="#2C3E50" points="948.79,625.2994,944.79,634.2994,948.79,630.2994,952.79,634.2994,948.79,625.2994" style="stroke:#2C3E50;stroke-width:1;"/><text fill="#000000" font-family="Arial" font-size="12" lengthAdjust="spacing" textLength="175.9219" x="949.79" y="938.508">3. Submit data for evaluation</text></g><!--link engine to factory--><g class="link" data-entity-1="engine" data-entity-2="factory" data-source-line="93" data-uid="lnk37" id="link_engine_factory"><path d="M1032.35,604.0494 C1129.07,604.0494 1321,604.0494 1321,604.0494 C1321,604.0494 1321,738.9794 1321,794.5794" fill="none" id="engine-to-factory" style="stroke:#2C3E50;stroke-width:1;"/><polygon fill="#2C3E50" points="1321,800.5794,1325,791.5794,1321,795.5794,1317,791.5794,1321,800.5794" style="stroke:#2C3E50;stroke-width:1;"/><text fill="#000000" font-family="Arial" font-size="12" lengthAdjust="spacing" textLength="120.9492" x="1153.94" y="601.188">4. Create conditions</text></g><!--link factory to logical--><g class="link" data-entity-1="factory" data-entity-2="logical" data-source-line="94" data-uid="lnk38" id="link_factory_logical"><path d="M1321,845.2094 C1321,881.2444 1321,954.6469 1321,1020.7631 C1321,1037.2922 1321,1053.3659 1321,1068.2864 C1321,1075.7467 1321,1082.9187 1321,1089.7152 C1321,1093.1135 1321,1096.4179 1321,1099.6175 C1321,1100.4174 1321,1101.2107 1321,1101.9974 C1321,1102.3907 1321,1096.7823 1321,1097.1723" fill="none" id="factory-to-logical" style="stroke:#2C3E50;stroke-width:1;"/><polygon fill="#2C3E50" points="1321,1103.1723,1325,1094.1723,1321,1098.1723,1317,1094.1723,1321,1103.1723" style="stroke:#2C3E50;stroke-width:1;"/><text fill="#000000" font-family="Arial" font-size="12" lengthAdjust="spacing" textLength="188.707" x="1132" y="996.038">5a. Create logical compositions</text></g><!--link factory to value--><g class="link" data-entity-1="factory" data-entity-2="value" data-source-line="95" data-uid="lnk39" id="link_factory_value"><path d="M1392.58,823.0494 C1484.69,823.0494 1633,823.0494 1633,823.0494 C1633,823.0494 1633,901.7794 1633,982.3544 C1633,1022.6419 1633,1063.3906 1633,1094.99 C1633,1096.965 1633,1098.9042 1633,1100.8053 C1633,1101.2806 1633,1095.7535 1633,1096.224" fill="none" id="factory-to-value" style="stroke:#2C3E50;stroke-width:1;"/><polygon fill="#2C3E50" points="1633,1102.224,1637,1093.224,1633,1097.224,1629,1093.224,1633,1102.224" style="stroke:#2C3E50;stroke-width:1;"/><text fill="#000000" font-family="Arial" font-size="12" lengthAdjust="spacing" textLength="144.8086" x="1488" y="864.818">5b. Create value checks</text></g><!--link engine to evaluator--><g class="link" data-entity-1="engine" data-entity-2="evaluator" data-source-line="96" data-uid="lnk40" id="link_engine_evaluator"><path d="M996.45,625.3394 C996.45,667.4494 996.45,752.2694 996.45,794.4194" fill="none" id="engine-to-evaluator" style="stroke:#2C3E50;stroke-width:1;"/><polygon fill="#2C3E50" points="996.45,800.4194,1000.45,791.4194,996.45,795.4194,992.45,791.4194,996.45,800.4194" style="stroke:#2C3E50;stroke-width:1;"/><text fill="#000000" font-family="Arial" font-size="12" lengthAdjust="spacing" textLength="179.8828" x="997.45" y="710.018">6. Evaluate rules against data</text></g><!--link evaluator to path--><g class="link" data-entity-1="evaluator" data-entity-2="path" data-source-line="97" data-uid="lnk41" id="link_evaluator_path"><path d="M998.77,845.2094 C998.77,905.6494 998.77,1065.2394 998.77,1125.2094" fill="none" id="evaluator-to-path" style="stroke:#2C3E50;stroke-width:1;"/><polygon fill="#2C3E50" points="998.77,1131.2094,1002.77,1122.2094,998.77,1126.2094,994.77,1122.2094,998.77,1131.2094" style="stroke:#2C3E50;stroke-width:1;"/><text fill="#000000" font-family="Arial" font-size="12" lengthAdjust="spacing" textLength="181.6055" x="816.77" y="985.348">7. Extract values from entities</text></g><!--link evaluator to results--><g class="link" data-entity-1="evaluator" data-entity-2="results" data-source-line="98" data-uid="lnk42" id="link_evaluator_results"><path d="M979.89,844.9494 C979.89,895.1494 979.89,1013.0494 979.89,1013.0494 C979.89,1013.0494 530,1013.0494 530,1013.0494 C530,1013.0494 530,1039.9469 530,1073.8731" fill="none" id="evaluator-to-results" style="stroke:#2C3E50;stroke-width:1;"/><polygon fill="#2C3E50" points="530,1079.8731,534,1070.8731,530,1074.8731,526,1070.8731,530,1079.8731" style="stroke:#2C3E50;stroke-width:1;"/><text fill="#000000" font-family="Arial" font-size="12" lengthAdjust="spacing" textLength="167.0449" x="601.09" y="1010.188">8. Return evaluation results</text></g><!--link results to user--><g class="link" data-entity-1="results" data-entity-2="user" data-source-line="99" data-uid="lnk43" id="link_results_user"><path d="M507,1078.2084 C507,1071.5093 507,1064.4439 507,1057.0444 C507,997.8481 507,917.2644 507,831.7144 C507,660.6144 507,475.6494 507,396.1894" fill="none" id="results-to-user" style="stroke:#2C3E50;stroke-width:1;"/><polygon fill="#2C3E50" points="507,390.1894,503,399.1894,507,395.1894,511,399.1894,507,390.1894" style="stroke:#2C3E50;stroke-width:1;"/><text fill="#000000" font-family="Arial" font-size="12" lengthAdjust="spacing" textLength="137.7715" x="369" y="780.628">9. Show results to user</text></g><!--link engine to GMN44--><g class="link" data-entity-1="engine" data-entity-2="GMN44" data-source-line="102" data-uid="lnk46" id="link_engine_GMN44"><path d="M936.57,625.2494 C936.57,664.7194 936.57,743.0494 936.57,743.0494 C936.57,743.0494 899.8,743.0494 855.13,743.0494" fill="none" id="engine-GMN44" style="stroke:#2C3E50;stroke-width:1;stroke-dasharray:7.0,7.0;"/></g><!--SRC=[hLPjRzis4FwkNt5J1zGT4YsEysQZ2P38Dh0XS8fcwJuKXS58jCr55bsITkCL-U-xuuiisSww3zC7cxnxZdTyU7VaJsR6vnmM1HDbf9z4kM2ApQ4G9JVh1GUfp4pM57q-OSl236LfHWmDhvLWnNxzlVYRG_kufhnMIdvBPI4Ll3bEEuFJexeoCrBTiEnfgkIop3siSzAzwD_imAJAkGehTI-ERherI2hd2rdoqkoiDaY7HyFsNcXznPj-sadFQx2HD7ndiM4xFJaQRgFgwmmxtHG9Y8mm1OUFI_mPb5Ea5WxXJwcU9eNy1gpCuK6pAOyYHdk3kCzNl90Bhc9W6dA-2ee7xMLB74HH5eA7sAwDt8jI625BRpY1xn50nbGEyU_tToCNmb2gEJCMyfUMfSK0b1WyA36T6Ji5BwOlBl6aunx4gT2PX4zSQVHX5uiFDgYSwqo9XVLFu1dFdc35onn3fqskd5tT99DbRWFMQB5nY1fMhb7qkIQ21i225ipCoDNF2P8aCgu___8bSHvhNZoO26L88ndWPiVywv8Lkx0LAvQrpTwljU5p7JTWBmV_7XSh2We-IP8lJRlQRAC9KlUFqTkpY4Zm4aKBJ3jC3d_4FdrIgRWzm0m7xf2RkU1m5iBji0b90-z3crbh2vouyIj8xVs5gTzr3Nehfo9Z1Tnvefr5uQM199UDrqK1hUjH_vt585zDRRc6rjr7hopN3UK8tK5h5DIbj9khwmsf_mXgby-EtEsGFz5XmzOURGPinKjzWYcXVMdH4Wtzu5bWdfIPfvnc3VszKQASMgMsm-RgIstatAriXrN8BtkEbkApYMnTXLaJ-04huy68mks8wgIHIsaX29RAtAUHcsybKfyPvZe93lv3c_15k5MtpUg8VNdk55Ypf6AfVPiXPFiywIHdzHfiLE3_uU4iwIQd3G_HTgNkgS_cuN2DDvzZNBdnQwHvQCzF3rrZVhlRNz_sO7Zzs-sWNo7R82Tm39vho2Mj3fDbCH5OKtYRWqAx2Zva0k_ogSTZatsTdlsKxEzAk1mS7bxPEwO7xSJTFHWFETSHYKdjUWyYZXEubImFQigdXhwJmFtoSIwCoxK9NXa-ip6QoCF8mZSfD3b985MS8RERfXG5DK53v-d1AQkmGMZFJU-nSjMFDe-LZHDbT9_fUYnLxI7yB05VcEu0i6zDyKcbtOQY3PGCgHxHvXnjder2vyu5jc0bvqWAlXS4qjGq2YdLWui44yWiLLdZAAYZ02CJUYOWlelapl2b4LH6-WU4pSj7QR3ZK5PLDyNxnwl1Cvil2cvRHE_zhuzNaUsURm8d5TRpSGcRQwVrBe1hPnwGIO6oiPMDQRjZUeEqt9o61x1rcsvzbftrc1wdbxxZn9M_wWWiwL3j-38uzuJnCG5QzFCZVpzo-K59hCEgub56oUjc8Afp2QM-mEPlMfFukvCdjF4nlQzUi3QzJ2ypMlB5Eg5FJ6oHDzMzMjosNWe-tpXC9gxmnoJ63JJWzK2eGV0SdHEGN8PI_mS0]--></g></svg>