<svg xmlns="http://www.w3.org/2000/svg" xmlns:xlink="http://www.w3.org/1999/xlink" contentStyleType="text/css" data-diagram-type="DESCRIPTION" height="1517px" preserveAspectRatio="none" style="width:1116px;height:1517px;background:#FFFFFF;" version="1.1" viewBox="0 0 1116 1517" width="1116px" zoomAndPan="magnify"><title>Rule Engine in Microservices Architecture</title><defs/><g><g class="title" data-source-line="20"><text fill="#000000" font-family="Arial" font-size="22" font-weight="bold" lengthAdjust="spacing" textLength="518.2568" x="294.3734" y="45.4209">Rule Engine in Microservices Architecture</text></g><!--cluster sources--><g class="cluster" data-entity="sources" data-source-line="22" data-uid="ent0002" id="cluster_sources"><path d="M185.0309,98.4336 C194.0898,83.655 209.095,86.1704 216.2688,100.4595 C226.1206,87.3031 237.4679,87.426 246.8064,101.0449 C255.6034,85.3238 271.6073,82.3909 281.9151,99.4255 C289.1121,86.9036 301.1199,83.7358 310.8443,96.5385 C319.6412,83.9821 330.5433,84.2122 339.8169,95.9705 C350.1369,83.3199 361.6529,80.0136 371.5468,96.4354 C379.0269,79.2841 395.213,79.1665 406.4265,92.1081 C414.9922,77.6094 429.7004,80.5226 436.7182,93.7964 C446.4854,80.2946 458.1901,79.5617 467.4505,94.347 C476.1146,77.7912 492.9473,77.647 501.4375,94.5238 C509.5858,82.6722 524.1813,81.7866 530.8851,96.1465 C539.5468,81.308 553.1276,79.2448 561.9918,95.9467 C574.8061,80.6383 586.4945,82.2431 595.3465,99.9497 C607.6132,86.2558 623.526,86.5613 632,104.3635 C634.3973,105.1828 634.7495,106.6421 633.1575,108.5614 C660.9908,124.3026 664.0822,146.9182 637.0652,166.3674 C659.7518,190.6093 657.7832,214.0445 625,227.3035 C627.3144,226.0403 628.5949,226.8197 629.2361,229.2319 C621.5648,246.0011 608.3507,249.0378 596.364,233.6422 C585.2204,246.8855 575.5338,245.5797 565.5205,232.3265 C558.091,246.6588 546.8988,251.3623 534.8021,237.392 C524.7367,251.0617 508.5386,250.6621 502.0031,233.622 C493.7258,253.9651 483.4315,256.2333 468.0273,240.2963 C459.0535,255.9912 449.7606,254.2766 439.7755,241.2925 C428.6145,259.6663 416.3113,258.2013 405.0921,241.3497 C393.6419,257.3986 383.8481,254.9326 373.4888,240.2286 C361.364,253.6324 350.1494,254.5359 340.0894,237.9304 C332.133,250.4767 319.6225,247.0974 313.4745,235.9031 C300.9721,252.2572 289.331,252.3411 277.4484,235.2356 C267.8357,247.7454 252.3019,247.5595 245.5609,231.9761 C235.9659,246.36 223.1697,244.7475 214.1514,231.3248 C199.2911,245.3182 178.5783,243.7676 174,220.3035 C174.6108,219.7553 175.2077,219.8427 175.4796,220.6684 C148.8338,210.2755 144.4496,181.8363 165.9561,163.4315 C134.4006,135.1456 142.3716,109.6682 181,97.3635 C182.6986,95.7729 184.355,96.1723 185.0309,98.4336" fill="#E0F7FA" style="stroke:#80DEEA;stroke-width:1;"/><text fill="#000000" font-family="Arial" font-size="12" font-weight="bold" lengthAdjust="spacing" textLength="150.6328" x="327.6836" y="123.5021">Configuration Sources</text></g><!--cluster Microservices Ecosystem--><g class="cluster" data-entity="Microservices Ecosystem" data-source-line="27" data-uid="ent0005" id="cluster_Microservices Ecosystem"><path d="M69.5,316.3035 L259.5781,316.3035 A3.75,3.75 0 0 1 262.0781,318.8035 L269.0781,356.2722 L790.5,356.2722 A2.5,2.5 0 0 1 793,358.7722 L793,1259.3635 A2.5,2.5 0 0 1 790.5,1261.8635 L69.5,1261.8635 A2.5,2.5 0 0 1 67,1259.3635 L67,318.8035 A2.5,2.5 0 0 1 69.5,316.3035" fill="#FFFFFF" style="stroke:#000000;stroke-width:1;"/><line style="stroke:#000000;stroke-width:1;" x1="67" x2="269.0781" y1="356.2722" y2="356.2722"/><text fill="#000000" font-family="Arial" font-size="12" font-weight="bold" lengthAdjust="spacing" textLength="169.0781" x="81" y="339.4421">Microservices Ecosystem</text></g><!--cluster itpa--><g class="cluster" data-entity="itpa" data-source-line="30" data-uid="ent0007" id="cluster_itpa"><rect fill="#ECF0F1" height="155.91" rx="2.5" ry="2.5" style="stroke:#BDC3C7;stroke-width:1;" width="330" x="99" y="1073.9535"/><rect fill="#ECF0F1" height="10" style="stroke:#BDC3C7;stroke-width:1;" width="15" x="409" y="1078.9535"/><rect fill="#ECF0F1" height="2" style="stroke:#BDC3C7;stroke-width:1;" width="4" x="407" y="1080.9535"/><rect fill="#ECF0F1" height="2" style="stroke:#BDC3C7;stroke-width:1;" width="4" x="407" y="1084.9535"/><text fill="#000000" font-family="Arial" font-size="12" font-weight="bold" lengthAdjust="spacing" textLength="84.7969" x="221.6016" y="1108.0921">ITPA Service</text></g><!--cluster nds--><g class="cluster" data-entity="nds" data-source-line="38" data-uid="ent0011" id="cluster_nds"><rect fill="#ECF0F1" height="155.9" rx="2.5" ry="2.5" style="stroke:#BDC3C7;stroke-width:1;" width="304" x="428" y="878.0535"/><rect fill="#ECF0F1" height="10" style="stroke:#BDC3C7;stroke-width:1;" width="15" x="712" y="883.0535"/><rect fill="#ECF0F1" height="2" style="stroke:#BDC3C7;stroke-width:1;" width="4" x="710" y="885.0535"/><rect fill="#ECF0F1" height="2" style="stroke:#BDC3C7;stroke-width:1;" width="4" x="710" y="889.0535"/><text fill="#000000" font-family="Arial" font-size="12" font-weight="bold" lengthAdjust="spacing" textLength="82.7109" x="538.6445" y="912.1921">NDS Service</text></g><!--cluster scm--><g class="cluster" data-entity="scm" data-source-line="46" data-uid="ent0015" id="cluster_scm"><rect fill="#ECF0F1" height="155.91" rx="2.5" ry="2.5" style="stroke:#BDC3C7;stroke-width:1;" width="284" x="477" y="1073.9535"/><rect fill="#ECF0F1" height="10" style="stroke:#BDC3C7;stroke-width:1;" width="15" x="741" y="1078.9535"/><rect fill="#ECF0F1" height="2" style="stroke:#BDC3C7;stroke-width:1;" width="4" x="739" y="1080.9535"/><rect fill="#ECF0F1" height="2" style="stroke:#BDC3C7;stroke-width:1;" width="4" x="739" y="1084.9535"/><text fill="#000000" font-family="Arial" font-size="12" font-weight="bold" lengthAdjust="spacing" textLength="83.4551" x="577.2725" y="1108.0921">SCM Service</text></g><!--cluster Rule Engine Service--><g class="cluster" data-entity="Rule Engine Service" data-source-line="54" data-uid="ent0019" id="cluster_Rule Engine Service"><path d="M185.5,376.3035 L340.9023,376.3035 A3.75,3.75 0 0 1 343.4023,378.8035 L350.4023,416.2722 L650.5,416.2722 A2.5,2.5 0 0 1 653,418.7722 L653,843.5535 A2.5,2.5 0 0 1 650.5,846.0535 L185.5,846.0535 A2.5,2.5 0 0 1 183,843.5535 L183,378.8035 A2.5,2.5 0 0 1 185.5,376.3035" fill="#FFFFFF" style="stroke:#000000;stroke-width:1;"/><line style="stroke:#000000;stroke-width:1;" x1="183" x2="350.4023" y1="416.2722" y2="416.2722"/><text fill="#000000" font-family="Arial" font-size="12" font-weight="bold" lengthAdjust="spacing" textLength="134.4023" x="197" y="399.4421">Rule Engine Service</text></g><!--entity rulesRepo--><g class="entity" data-entity="rulesRepo" data-source-line="23" data-uid="ent0003" id="entity_rulesRepo"><rect fill="#ECF0F1" height="77.9375" rx="2.5" ry="2.5" style="stroke:#BDC3C7;stroke-width:1;" width="166.582" x="181.71" y="141.3635"/><rect fill="#ECF0F1" height="10" style="stroke:#BDC3C7;stroke-width:1;" width="15" x="328.292" y="146.3635"/><rect fill="#ECF0F1" height="2" style="stroke:#BDC3C7;stroke-width:1;" width="4" x="326.292" y="148.3635"/><rect fill="#ECF0F1" height="2" style="stroke:#BDC3C7;stroke-width:1;" width="4" x="326.292" y="152.3635"/><text fill="#000000" font-family="Arial" font-size="12" lengthAdjust="spacing" textLength="94.8223" x="206.71" y="182.5021">Rule Repository</text><text fill="#000000" font-family="Arial" font-size="12" lengthAdjust="spacing" textLength="106.582" x="206.71" y="196.4709">(JSON/YAML Files)</text></g><!--entity configTemplates--><g class="entity" data-entity="configTemplates" data-source-line="24" data-uid="ent0004" id="entity_configTemplates"><rect fill="#ECF0F1" height="77.9375" rx="2.5" ry="2.5" style="stroke:#BDC3C7;stroke-width:1;" width="195.2988" x="428.35" y="141.3635"/><rect fill="#ECF0F1" height="10" style="stroke:#BDC3C7;stroke-width:1;" width="15" x="603.6488" y="146.3635"/><rect fill="#ECF0F1" height="2" style="stroke:#BDC3C7;stroke-width:1;" width="4" x="601.6488" y="148.3635"/><rect fill="#ECF0F1" height="2" style="stroke:#BDC3C7;stroke-width:1;" width="4" x="601.6488" y="152.3635"/><text fill="#000000" font-family="Arial" font-size="12" lengthAdjust="spacing" textLength="135.2988" x="453.35" y="182.5021">Network Configuration</text><text fill="#000000" font-family="Arial" font-size="12" lengthAdjust="spacing" textLength="63.0469" x="453.35" y="196.4709">Templates</text></g><!--entity bus--><g class="entity" data-entity="bus" data-source-line="28" data-uid="ent0006" id="entity_bus"><path d="M241.75,952.0235 L350.248,952.0235 C355.248,952.0235 355.248,974.0078 355.248,974.0078 C355.248,974.0078 355.248,995.9922 350.248,995.9922 L241.75,995.9922 C236.75,995.9922 236.75,974.0078 236.75,974.0078 C236.75,974.0078 236.75,952.0235 241.75,952.0235" fill="#FFECB3" style="stroke:#FFD54F;stroke-width:1;"/><path d="M350.248,952.0235 C345.248,952.0235 345.248,974.0078 345.248,974.0078 C345.248,995.9922 350.248,995.9922 350.248,995.9922" fill="none" style="stroke:#FFD54F;stroke-width:1;"/><text fill="#000000" font-family="Arial" font-size="12" lengthAdjust="spacing" textLength="78.498" x="251.75" y="978.1621">Message Bus</text></g><g class="entity" data-entity="GMN8" data-source-line="32" data-uid="ent0009" id="entity_GMN8"><path d="M187.26,1133.9535 L187.26,1205.8597 L404.7327,1205.8597 L404.7327,1143.9535 L394.7327,1133.9535 L187.26,1133.9535" fill="#FFFFFF" style="stroke:#000000;stroke-width:1;"/><path d="M394.7327,1133.9535 L394.7327,1143.9535 L404.7327,1143.9535 L394.7327,1133.9535" fill="#FFFFFF" style="stroke:#000000;stroke-width:1;"/><text fill="#000000" font-family="Arial" font-size="12" lengthAdjust="spacing" textLength="134.3848" x="203.26" y="1160.0921">IT Process Automation</text><text fill="#000000" font-family="Arial" font-size="12" lengthAdjust="spacing" textLength="129.1641" x="203.26" y="1174.0609">&#8226; Device provisioning</text><text fill="#000000" font-family="Arial" font-size="12" lengthAdjust="spacing" textLength="176.4727" x="203.26" y="1188.0296">&#8226; Configuration management</text></g><g class="entity" data-entity="GMN12" data-source-line="40" data-uid="ent0013" id="entity_GMN12"><path d="M516.44,938.0535 L516.44,1009.9597 L707.5572,1009.9597 L707.5572,948.0535 L697.5572,938.0535 L516.44,938.0535" fill="#FFFFFF" style="stroke:#000000;stroke-width:1;"/><path d="M697.5572,938.0535 L697.5572,948.0535 L707.5572,948.0535 L697.5572,938.0535" fill="#FFFFFF" style="stroke:#000000;stroke-width:1;"/><text fill="#000000" font-family="Arial" font-size="12" lengthAdjust="spacing" textLength="136.9863" x="532.44" y="964.1921">Network Data Services</text><text fill="#000000" font-family="Arial" font-size="12" lengthAdjust="spacing" textLength="121.9219" x="532.44" y="978.1609">&#8226; Network inventory</text><text fill="#000000" font-family="Arial" font-size="12" lengthAdjust="spacing" textLength="150.1172" x="532.44" y="992.1296">&#8226; Topology management</text></g><g class="entity" data-entity="GMN16" data-source-line="48" data-uid="ent0017" id="entity_GMN16"><path d="M565.08,1133.9535 L565.08,1205.8597 L736.914,1205.8597 L736.914,1143.9535 L726.914,1133.9535 L565.08,1133.9535" fill="#FFFFFF" style="stroke:#000000;stroke-width:1;"/><path d="M726.914,1133.9535 L726.914,1143.9535 L736.914,1143.9535 L726.914,1133.9535" fill="#FFFFFF" style="stroke:#000000;stroke-width:1;"/><text fill="#000000" font-family="Arial" font-size="12" lengthAdjust="spacing" textLength="129.5449" x="581.08" y="1160.0921">Service Configuration</text><text fill="#000000" font-family="Arial" font-size="12" lengthAdjust="spacing" textLength="130.834" x="581.08" y="1174.0609">&#8226; Service deployment</text><text fill="#000000" font-family="Arial" font-size="12" lengthAdjust="spacing" textLength="128.8418" x="581.08" y="1188.0296">&#8226; Resource allocation</text></g><!--entity cache--><g class="entity" data-entity="cache" data-source-line="55" data-uid="ent0020" id="entity_cache"><rect fill="#ECF0F1" height="63.9688" rx="2.5" ry="2.5" style="stroke:#BDC3C7;stroke-width:1;" width="127.793" x="199.1" y="597.1935"/><rect fill="#ECF0F1" height="10" style="stroke:#BDC3C7;stroke-width:1;" width="15" x="306.893" y="602.1935"/><rect fill="#ECF0F1" height="2" style="stroke:#BDC3C7;stroke-width:1;" width="4" x="304.893" y="604.1935"/><rect fill="#ECF0F1" height="2" style="stroke:#BDC3C7;stroke-width:1;" width="4" x="304.893" y="608.1935"/><text fill="#000000" font-family="Arial" font-size="12" lengthAdjust="spacing" textLength="67.793" x="224.1" y="638.3321">Rule Cache</text></g><!--entity loader--><g class="entity" data-entity="loader" data-source-line="56" data-uid="ent0021" id="entity_loader"><rect fill="#ECF0F1" height="63.9688" rx="2.5" ry="2.5" style="stroke:#BDC3C7;stroke-width:1;" width="131.7891" x="199.11" y="428.3035"/><rect fill="#ECF0F1" height="10" style="stroke:#BDC3C7;stroke-width:1;" width="15" x="310.8991" y="433.3035"/><rect fill="#ECF0F1" height="2" style="stroke:#BDC3C7;stroke-width:1;" width="4" x="308.8991" y="435.3035"/><rect fill="#ECF0F1" height="2" style="stroke:#BDC3C7;stroke-width:1;" width="4" x="308.8991" y="439.3035"/><text fill="#000000" font-family="Arial" font-size="12" lengthAdjust="spacing" textLength="71.7891" x="224.11" y="469.4421">Rule Loader</text></g><!--entity engine--><g class="entity" data-entity="engine" data-source-line="57" data-uid="ent0022" id="entity_engine"><rect fill="#ECF0F1" height="63.9688" rx="2.5" ry="2.5" style="stroke:#BDC3C7;stroke-width:1;" width="163.4531" x="444.27" y="428.3035"/><rect fill="#ECF0F1" height="10" style="stroke:#BDC3C7;stroke-width:1;" width="15" x="587.7231" y="433.3035"/><rect fill="#ECF0F1" height="2" style="stroke:#BDC3C7;stroke-width:1;" width="4" x="585.7231" y="435.3035"/><rect fill="#ECF0F1" height="2" style="stroke:#BDC3C7;stroke-width:1;" width="4" x="585.7231" y="439.3035"/><text fill="#000000" font-family="Arial" font-size="12" lengthAdjust="spacing" textLength="103.4531" x="469.27" y="469.4421">Rule Engine Core</text></g><!--entity api--><g class="entity" data-entity="api" data-source-line="58" data-uid="ent0023" id="entity_api"><rect fill="#ECF0F1" height="63.9688" rx="2.5" ry="2.5" style="stroke:#BDC3C7;stroke-width:1;" width="166.2832" x="397.86" y="766.0835"/><rect fill="#ECF0F1" height="10" style="stroke:#BDC3C7;stroke-width:1;" width="15" x="544.1432" y="771.0835"/><rect fill="#ECF0F1" height="2" style="stroke:#BDC3C7;stroke-width:1;" width="4" x="542.1432" y="773.0835"/><rect fill="#ECF0F1" height="2" style="stroke:#BDC3C7;stroke-width:1;" width="4" x="542.1432" y="777.0835"/><text fill="#000000" font-family="Arial" font-size="12" lengthAdjust="spacing" textLength="106.2832" x="422.86" y="807.2221">Rule API Gateway</text></g><!--entity handler--><g class="entity" data-entity="handler" data-source-line="59" data-uid="ent0024" id="entity_handler"><rect fill="#ECF0F1" height="63.9688" rx="2.5" ry="2.5" style="stroke:#BDC3C7;stroke-width:1;" width="148.6816" x="406.66" y="597.1935"/><rect fill="#ECF0F1" height="10" style="stroke:#BDC3C7;stroke-width:1;" width="15" x="535.3416" y="602.1935"/><rect fill="#ECF0F1" height="2" style="stroke:#BDC3C7;stroke-width:1;" width="4" x="533.3416" y="604.1935"/><rect fill="#ECF0F1" height="2" style="stroke:#BDC3C7;stroke-width:1;" width="4" x="533.3416" y="608.1935"/><text fill="#000000" font-family="Arial" font-size="12" lengthAdjust="spacing" textLength="88.6816" x="431.66" y="638.3321">Result Handler</text></g><g class="entity" data-entity="GMN40" data-source-line="84" data-uid="ent0041" id="entity_GMN40"><path d="M808.99,572.2735 L808.99,686.086 L1109.0037,686.086 L1109.0037,582.2735 L1099.0037,572.2735 L808.99,572.2735" fill="#FFFFFF" style="stroke:#000000;stroke-width:1;"/><path d="M1099.0037,572.2735 L1099.0037,582.2735 L1109.0037,582.2735 L1099.0037,572.2735" fill="#FFFFFF" style="stroke:#000000;stroke-width:1;"/><text fill="#000000" font-family="Arial" font-size="12" font-weight="bold" lengthAdjust="spacing" textLength="158.2559" x="824.99" y="598.4121">Rule Engine Processing</text><text fill="#000000" font-family="Arial" font-size="12" lengthAdjust="spacing" textLength="224.127" x="824.99" y="612.3809">1. Receive request with data payload</text><text fill="#000000" font-family="Arial" font-size="12" lengthAdjust="spacing" textLength="259.0137" x="824.99" y="626.3496">2. Select applicable rules based on context</text><text fill="#000000" font-family="Arial" font-size="12" lengthAdjust="spacing" textLength="179.8828" x="824.99" y="640.3184">3. Evaluate rules against data</text><text fill="#000000" font-family="Arial" font-size="12" lengthAdjust="spacing" textLength="206.2324" x="824.99" y="654.2871">4. Return detailed pass/fail results</text><text fill="#000000" font-family="Arial" font-size="12" lengthAdjust="spacing" textLength="211.2188" x="824.99" y="668.2559">5. Include remediation suggestions</text></g><!--link bus to GMN8--><g class="link" data-entity-1="bus" data-entity-2="GMN8" data-source-line="32" data-uid="lnk10" id="link_bus_GMN8"><path d="M296,996.4735 C296,1030.0435 296,1093.6235 296,1133.7735" fill="none" id="bus-GMN8" style="stroke:#2C3E50;stroke-width:1;stroke-dasharray:7.0,7.0;"/></g><!--link GMN8 to GMN12--><g class="link" data-entity-1="GMN8" data-entity-2="GMN12" data-source-line="40" data-uid="lnk14" id="link_GMN8_GMN12"><path d="M376.55,1133.4735 C376.55,1084.5935 376.55,1003.8635 376.55,1003.8635 C376.55,1003.8635 451.05,1003.8635 516.23,1003.8635" fill="none" id="GMN8-GMN12" style="stroke:#2C3E50;stroke-width:1;stroke-dasharray:7.0,7.0;"/></g><!--link GMN12 to GMN16--><g class="link" data-entity-1="GMN12" data-entity-2="GMN16" data-source-line="48" data-uid="lnk18" id="link_GMN12_GMN16"><path d="M636.32,1010.3935 C636.32,1045.5835 636.32,1098.5935 636.32,1133.7135" fill="none" id="GMN12-GMN16" style="stroke:#2C3E50;stroke-width:1;stroke-dasharray:7.0,7.0;"/></g><!--link rulesRepo to loader--><g class="link" data-entity-1="rulesRepo" data-entity-2="loader" data-source-line="67" data-uid="lnk25" id="link_rulesRepo_loader"><path d="M265,219.5535 C265,275.2335 265,370.1535 265,421.8535" fill="none" id="rulesRepo-to-loader" style="stroke:#3498DB;stroke-width:1;"/><polygon fill="#3498DB" points="265,427.8535,269,418.8535,265,422.8535,261,418.8535,265,427.8535" style="stroke:#3498DB;stroke-width:1;"/><text fill="#000000" font-family="Arial" font-size="12" lengthAdjust="spacing" textLength="77.584" x="177" y="310.8421">1. Load rules</text></g><!--link loader to cache--><g class="link" data-entity-1="loader" data-entity-2="cache" data-source-line="68" data-uid="lnk26" id="link_loader_cache"><path d="M263,492.4535 C263,522.4035 263,560.8335 263,590.8435" fill="none" id="loader-to-cache" style="stroke:#3498DB;stroke-width:1;"/><polygon fill="#3498DB" points="263,596.8435,267,587.8435,263,591.8435,259,587.8435,263,596.8435" style="stroke:#3498DB;stroke-width:1;"/><text fill="#000000" font-family="Arial" font-size="12" lengthAdjust="spacing" textLength="158.8125" x="94" y="531.7821">2. Cache by type/category</text></g><!--link itpa to bus--><g class="link" data-entity-1="itpa" data-entity-2="bus" data-source-line="69" data-uid="lnk27" id="link_itpa_bus"><path d="M144.85,1073.0418 C144.85,1072.6729 144.85,1072.304 144.85,1071.9352 C144.85,1070.4601 144.85,1068.9864 144.85,1067.5156 C144.85,1064.574 144.85,1061.644 144.85,1058.737 C144.85,1052.923 144.85,1047.2014 144.85,1041.6642 C144.85,1030.59 144.85,1020.2541 144.85,1011.3947 C144.85,993.676 144.85,981.8635 144.85,981.8635 C144.85,981.8635 188.02,981.8635 230.26,981.8635" fill="none" id="itpa-to-bus" style="stroke:#E74C3C;stroke-width:1;"/><polygon fill="#E74C3C" points="236.26,981.8635,227.26,977.8635,231.26,981.8635,227.26,985.8635,236.26,981.8635" style="stroke:#E74C3C;stroke-width:1;"/><text fill="#000000" font-family="Arial" font-size="12" lengthAdjust="spacing" textLength="98.9063" x="35.85" y="1036.6721">3a. NDC request</text></g><!--link bus to itpa--><g class="link" data-entity-1="bus" data-entity-2="itpa" data-source-line="79" data-uid="lnk37" id="link_bus_itpa"><path d="M236.46,966.8635 C181.06,966.8635 107,966.8635 107,966.8635 C107,966.8635 107,1014.501 107,1063.6272 C107,1066.6976 107,1063.7738 107,1066.8446" fill="none" id="bus-to-itpa" style="stroke:#2ECC71;stroke-width:1;"/><polygon fill="#2ECC71" points="107,1072.8446,111,1063.8446,107,1067.8446,103,1063.8446,107,1072.8446" style="stroke:#2ECC71;stroke-width:1;"/><text fill="#000000" font-family="Arial" font-size="12" lengthAdjust="spacing" textLength="74.1211" x="22" y="990.5021">11a. Results</text></g><!--link nds to bus--><g class="link" data-entity-1="nds" data-entity-2="bus" data-source-line="70" data-uid="lnk28" id="link_nds_bus"><path d="M427.8871,967.8635 C427.5861,967.8635 427.2779,967.8635 426.9624,967.8635 C426.3315,967.8635 425.672,967.8635 424.9852,967.8635 C423.6118,967.8635 422.1295,967.8635 420.5499,967.8635 C417.3906,967.8635 413.8419,967.8635 409.995,967.8635 C394.6075,967.8635 380.45,967.8635 361.37,967.8635" fill="none" id="nds-to-bus" style="stroke:#E74C3C;stroke-width:1;"/><polygon fill="#E74C3C" points="355.37,967.8635,364.37,971.8635,360.37,967.8635,364.37,963.8635,355.37,967.8635" style="stroke:#E74C3C;stroke-width:1;"/><text fill="#000000" font-family="Arial" font-size="12" lengthAdjust="spacing" textLength="99.1699" x="409.47" y="955.0021">3b. NDC request</text></g><!--link bus to nds--><g class="link" data-entity-1="bus" data-entity-2="nds" data-source-line="80" data-uid="lnk38" id="link_bus_nds"><path d="M355.37,974.8635 C373.855,974.8635 393.35,974.8635 408.54,974.8635 C416.135,974.8635 422.6538,974.8635 427.4319,974.8635 C427.5812,974.8635 421.7288,974.8635 421.8747,974.8635" fill="none" id="bus-to-nds" style="stroke:#2ECC71;stroke-width:1;"/><polygon fill="#2ECC71" points="427.8747,974.8635,418.8747,970.8635,422.8747,974.8635,418.8747,978.8635,427.8747,974.8635" style="stroke:#2ECC71;stroke-width:1;"/><text fill="#000000" font-family="Arial" font-size="12" lengthAdjust="spacing" textLength="74.3848" x="406.62" y="997.0021">11b. Results</text></g><!--link scm to bus--><g class="link" data-entity-1="scm" data-entity-2="bus" data-source-line="71" data-uid="lnk29" id="link_scm_bus"><path d="M476.964,1170.8635 C476.9201,1170.8635 476.8762,1170.8635 476.8322,1170.8635 C476.7443,1170.8635 476.656,1170.8635 476.5674,1170.8635 C475.15,1170.8635 473.6569,1170.8635 472.175,1170.8635 C466.2475,1170.8635 460.5,1170.8635 460.5,1170.8635 C460.5,1170.8635 460.5,989.8635 460.5,989.8635 C460.5,989.8635 408.51,989.8635 361.39,989.8635" fill="none" id="scm-to-bus" style="stroke:#E74C3C;stroke-width:1;"/><polygon fill="#E74C3C" points="355.39,989.8635,364.39,993.8635,360.39,989.8635,364.39,985.8635,355.39,989.8635" style="stroke:#E74C3C;stroke-width:1;"/><text fill="#000000" font-family="Arial" font-size="12" lengthAdjust="spacing" textLength="98.1504" x="351.5" y="1062.1621">3c. NDC request</text></g><!--link bus to scm--><g class="link" data-entity-1="bus" data-entity-2="scm" data-source-line="81" data-uid="lnk39" id="link_bus_scm"><path d="M355.54,982.8635 C410.94,982.8635 485,982.8635 485,982.8635 C485,982.8635 485,1026.0435 485,1070.9097 C485,1071.6107 485,1066.3122 485,1067.0139" fill="none" id="bus-to-scm" style="stroke:#2ECC71;stroke-width:1;"/><polygon fill="#2ECC71" points="485,1073.0139,489,1064.0139,485,1068.0139,481,1064.0139,485,1073.0139" style="stroke:#2ECC71;stroke-width:1;"/><text fill="#000000" font-family="Arial" font-size="12" lengthAdjust="spacing" textLength="73.3652" x="496" y="1033.3821">11c. Results</text></g><!--link bus to api--><g class="link" data-entity-1="bus" data-entity-2="api" data-source-line="72" data-uid="lnk30" id="link_bus_api"><path d="M355.41,957.8635 C385.12,957.8635 414.82,957.8635 414.82,957.8635 C414.82,957.8635 414.82,883.0935 414.82,836.4035" fill="none" id="bus-to-api" style="stroke:#E74C3C;stroke-width:1;"/><polygon fill="#E74C3C" points="414.82,830.4035,410.82,839.4035,414.82,835.4035,418.82,839.4035,414.82,830.4035" style="stroke:#E74C3C;stroke-width:1;"/><text fill="#000000" font-family="Arial" font-size="12" lengthAdjust="spacing" textLength="141.9141" x="262.82" y="910.9821">4. Route to Rule Engine</text></g><!--link api to bus--><g class="link" data-entity-1="api" data-entity-2="bus" data-source-line="78" data-uid="lnk36" id="link_api_bus"><path d="M424.91,830.2335 C424.91,878.1935 424.91,962.8635 424.91,962.8635 C424.91,962.8635 395.33,962.8635 361.55,962.8635" fill="none" id="api-to-bus" style="stroke:#2ECC71;stroke-width:1;"/><polygon fill="#2ECC71" points="355.55,962.8635,364.55,966.8635,360.55,962.8635,364.55,958.8635,355.55,962.8635" style="stroke:#2ECC71;stroke-width:1;"/><text fill="#000000" font-family="Arial" font-size="12" lengthAdjust="spacing" textLength="108.0762" x="435.91" y="918.3721">10. NDC response</text></g><!--link api to engine--><g class="link" data-entity-1="api" data-entity-2="engine" data-source-line="73" data-uid="lnk31" id="link_api_engine"><path d="M559.74,765.6835 C559.74,701.1135 559.74,563.0535 559.74,498.5735" fill="none" id="api-to-engine" style="stroke:#9B59B6;stroke-width:1;"/><polygon fill="#9B59B6" points="559.74,492.5735,555.74,501.5735,559.74,497.5735,563.74,501.5735,559.74,492.5735" style="stroke:#9B59B6;stroke-width:1;"/><text fill="#000000" font-family="Arial" font-size="12" lengthAdjust="spacing" textLength="110.9531" x="570.74" y="616.2621">5. Process request</text></g><!--link engine to cache--><g class="link" data-entity-1="engine" data-entity-2="cache" data-source-line="74" data-uid="lnk32" id="link_engine_cache"><path d="M443.97,460.8635 C393.96,460.8635 339.59,460.8635 339.59,460.8635 C339.59,460.8635 339.59,629.8635 339.59,629.8635 C339.59,629.8635 340.65,629.8635 333.29,629.8635" fill="none" id="engine-to-cache" style="stroke:#9B59B6;stroke-width:1;"/><polygon fill="#9B59B6" points="327.29,629.8635,336.29,633.8635,332.29,629.8635,336.29,625.8635,327.29,629.8635" style="stroke:#9B59B6;stroke-width:1;"/><text fill="#000000" font-family="Arial" font-size="12" lengthAdjust="spacing" textLength="69.9727" x="350.59" y="486.4721">6. Get rules</text></g><!--link configTemplates to engine--><g class="link" data-entity-1="configTemplates" data-entity-2="engine" data-source-line="75" data-uid="lnk33" id="link_configTemplates_engine"><path d="M526,219.5535 C526,275.2335 526,370.1535 526,421.8535" fill="none" id="configTemplates-to-engine" style="stroke:#9B59B6;stroke-width:1;stroke-dasharray:7.0,7.0;"/><polygon fill="#9B59B6" points="526,427.8535,530,418.8535,526,422.8535,522,418.8535,526,427.8535" style="stroke:#9B59B6;stroke-width:1;"/><text fill="#000000" font-family="Arial" font-size="12" lengthAdjust="spacing" textLength="132.0234" x="537" y="310.8421">7. Context (if needed)</text></g><!--link engine to handler--><g class="link" data-entity-1="engine" data-entity-2="handler" data-source-line="76" data-uid="lnk34" id="link_engine_handler"><path d="M499.81,492.4535 C499.81,522.4035 499.81,560.8335 499.81,590.8435" fill="none" id="engine-to-handler" style="stroke:#2ECC71;stroke-width:1;"/><polygon fill="#2ECC71" points="499.81,596.8435,503.81,587.8435,499.81,591.8435,495.81,587.8435,499.81,596.8435" style="stroke:#2ECC71;stroke-width:1;"/><text fill="#000000" font-family="Arial" font-size="12" lengthAdjust="spacing" textLength="59.1328" x="429.81" y="531.7821">8. Results</text></g><!--link handler to api--><g class="link" data-entity-1="handler" data-entity-2="api" data-source-line="77" data-uid="lnk35" id="link_handler_api"><path d="M481,661.3435 C481,691.2935 481,729.7235 481,759.7335" fill="none" id="handler-to-api" style="stroke:#2ECC71;stroke-width:1;"/><polygon fill="#2ECC71" points="481,765.7335,485,756.7335,481,760.7335,477,756.7335,481,765.7335" style="stroke:#2ECC71;stroke-width:1;"/><text fill="#000000" font-family="Arial" font-size="12" lengthAdjust="spacing" textLength="116.7715" x="354" y="700.6721">9. Format response</text></g><!--link engine to GMN40--><g class="link" data-entity-1="engine" data-entity-2="GMN40" data-source-line="84" data-uid="lnk42" id="link_engine_GMN40"><path d="M585.93,492.6935 C585.93,529.6035 585.93,584.8635 585.93,584.8635 C585.93,584.8635 705,584.8635 808.6,584.8635" fill="none" id="engine-GMN40" style="stroke:#2C3E50;stroke-width:1;stroke-dasharray:7.0,7.0;"/></g><g class="legend" data-source-line="93"><rect fill="none" height="231.7813" rx="7.5" ry="7.5" style="stroke:#000000;stroke-width:1;" width="254.2148" x="842.7888" y="1272.8635"/><text fill="#000000" font-family="Arial" font-size="14" font-weight="bold" lengthAdjust="spacing" textLength="101.459" x="857.7888" y="1300.8586">Flow Stages:</text><text fill="#000000" font-family="Arial" font-size="14" font-weight="bold" lengthAdjust="spacing" textLength="41.2139" x="872.6629" y="1329.1555">Color</text><text fill="#000000" font-family="Arial" font-size="14" font-weight="bold" lengthAdjust="spacing" textLength="45.7393" x="943.6248" y="1329.1555">Stage</text><rect fill="#3498DB" height="36.2969" style="stroke:none;stroke-width:1;" width="70.9619" x="857.7888" y="1342.4572"/><text fill="#000000" font-family="Arial" font-size="14" lengthAdjust="spacing" textLength="4.4502" x="867.7888" y="1365.4523">&#160;</text><text fill="#000000" font-family="Arial" font-size="14" lengthAdjust="spacing" textLength="91.0342" x="943.2009" y="1365.4523">Rule Loading</text><rect fill="#E74C3C" height="36.2969" style="stroke:none;stroke-width:1;" width="70.9619" x="857.7888" y="1378.7541"/><text fill="#000000" font-family="Arial" font-size="14" lengthAdjust="spacing" textLength="4.4502" x="867.7888" y="1401.7492">&#160;</text><text fill="#000000" font-family="Arial" font-size="14" lengthAdjust="spacing" textLength="124.3525" x="943.2009" y="1401.7492">Request Handling</text><rect fill="#9B59B6" height="36.2969" style="stroke:none;stroke-width:1;" width="70.9619" x="857.7888" y="1415.051"/><text fill="#000000" font-family="Arial" font-size="14" lengthAdjust="spacing" textLength="4.4502" x="867.7888" y="1438.0461">&#160;</text><text fill="#000000" font-family="Arial" font-size="14" lengthAdjust="spacing" textLength="110.8652" x="943.2009" y="1438.0461">Rule Processing</text><rect fill="#2ECC71" height="36.2969" style="stroke:none;stroke-width:1;" width="70.9619" x="857.7888" y="1451.3478"/><text fill="#000000" font-family="Arial" font-size="14" lengthAdjust="spacing" textLength="4.4502" x="867.7888" y="1474.343">&#160;</text><text fill="#000000" font-family="Arial" font-size="14" lengthAdjust="spacing" textLength="106.4492" x="943.2009" y="1474.343">Result Delivery</text><line style="stroke:#000000;stroke-width:1;" x1="857.7888" x2="1082.0037" y1="1306.1603" y2="1306.1603"/><line style="stroke:#000000;stroke-width:1;" x1="857.7888" x2="1082.0037" y1="1342.4572" y2="1342.4572"/><line style="stroke:#000000;stroke-width:1;" x1="857.7888" x2="1082.0037" y1="1378.7541" y2="1378.7541"/><line style="stroke:#000000;stroke-width:1;" x1="857.7888" x2="1082.0037" y1="1415.051" y2="1415.051"/><line style="stroke:#000000;stroke-width:1;" x1="857.7888" x2="1082.0037" y1="1451.3478" y2="1451.3478"/><line style="stroke:#000000;stroke-width:1;" x1="857.7888" x2="1082.0037" y1="1487.6447" y2="1487.6447"/><line style="stroke:#000000;stroke-width:1;" x1="857.7888" x2="857.7888" y1="1306.1603" y2="1487.6447"/><line style="stroke:#000000;stroke-width:1;" x1="928.7507" x2="928.7507" y1="1306.1603" y2="1487.6447"/><line style="stroke:#000000;stroke-width:1;" x1="1082.0037" x2="1082.0037" y1="1306.1603" y2="1487.6447"/></g><!--SRC=[bPRDSjis483lV8gjSsXoY2nPTcndNCz8b9Yw4wkkvHuwJGyGkQPGWm03WBAPsZDzbVRUGv_1Rz8dwG8a9J9IEjEB1i9-krZi7_YLNMA6a0l6PM3kkCoPPXa8Bj6MEOBITgbQWWdUiaBOI4axOwGuqfo9tV8v_uGmE6W9Hrgh-r09fU75GJYS7lLRmb1bkP8exPZ5TwbMXKngT1f6_MYm4rKwGLrZuqau38zRs0y55hXbBOgcuNYuXRKjHT7aw31g7oXKaMpxrO-Eez4MrhPqqfzCfwCW-1f6HKOECmqe86T9mcKAJWjmnTssKOBbBEC4ATEoULMpWtvdKriUyvn9syY7RVbOFUpKcwa43UPmqjwyPlAktWmijmBXkg2VgKof281BkEInLWRrYiTeA8dnabkCRQ4n269tPTWBbRpbQQ6PvKh2N1MQq3rWXkxbr_1R010tUOCzVyGrvifmgtJvGRxyRlxzRF-dqULxYBX0yyfhQyACmxhQCxJtIjz1vzWFyWOpAcHRdnnxuNelU0g2d5B8KeIzxfMciJAbiPZjUJS_ke8W1ernyBYex2qAGyAk8nStLoEOLtOyn6tEl140gIp2GbchClyVuE86hhIY4ocA1MrxjslPFx__IStZx42krOeR4b7-Mj9kZ3CcoJbNKnv1cVW3wS_JbfUpoRpZf4pC5triGZjXbZLAfkL58-TovKfLbotPZSgfxDFoVpat3oyxpfau-w9pDTSDHSk1HfvWBbIvFhyINcDLYy24KF56TTkxTPcq6s7jO-NSvxKSidXPNI1sgvtCUyLeD7X8-ELEgZulLBgoX_x_JdHqTG7lgBZlMUbHblCj3WtDO_YMoKJKPo-hjR_lavjDFneQG8ALgh3LJ58wPP9_ejqCVrMwGIXAf9uz_-6QIxkr0feSf94mqq1eA7oS9Ghm8HVFVyNKu7G7gt7Z5bLKi6vjUFtpY-7XwSba_Clhypemy1O6FH-lQWG4zNO7zO4cyg1NHHyM9RX7Qv-IYwahJT-Df3CzFgItmUbG4vF6aFLWDWb18_MwiO5hY5tOeekvqjo5nLtCxNOmIWjXXpsufWWZK3nQYGwSbF3JyT7f-8t3guIJnb5lFIyQsxMimpTnUDE3TsZhW7qs_LeQlLxhYEEUQoQB3nPUybkGY0achrh774p3y7ZWZgdBXfHEUb2LbGcQpGvPtVUq1v7IDEJ8UKDvD-khRiWgW8D-4y2QgoEuuNmY2HompT5RaCkYOnR_mRWKEYRUC45hpe2wtVJRsUAytP1rAcWed-qlpaa-S3PYv2jiqWFtt2uXSQCpPwMhMSAeFESewC6akEI2nsn1DdsIOC4C9a3JFAvoGFIm1zCL4mKbhOPOIjzcPDkP9S2L4TBZAsdAMKPFPK9d6RD_IsiNGNydSBLp8MDH9Cwv31DUFHkcI5Dob9OcM0y-ztdo_3TBE4q1B6cRLMF0DxyV3H0Bfdb2zn6OEZtDqwMjOXG9TGzpImFJlAqZy_WDL1z0jF0IU7IxPtNpdZ_2UXwwRvHQM3MC4zRHz4Eh1LG5t6Xlyj78gpHx0txeJL1GSdH9SdHbwZp_5m00]--></g></svg>